<?xml version="1.0" encoding="UTF-8"?><svg id="Layer_1" xmlns="http://www.w3.org/2000/svg" viewBox="0 0 90 110"><defs><style>.cls-1{fill:#f7a9b8;}.cls-1,.cls-2,.cls-3,.cls-4,.cls-5{stroke:#1f2020;}.cls-1,.cls-3,.cls-4,.cls-5{stroke-linecap:round;stroke-linejoin:round;stroke-width:.55px;}.cls-6{font-family:SourceSerifRoman-Regular, 'Source Serif Variable';font-size:5.12px;font-variation-settings:'wght' 400;}.cls-6,.cls-7{fill:#1f2020;}.cls-2{stroke-miterlimit:10;stroke-width:.37px;}.cls-2,.cls-5{fill:none;}.cls-3{fill:#c5e0a2;}.cls-4{fill:#b3bbdf;}</style></defs><g><g><path class="cls-5" d="M12.54,16.45h63.91v50.22c0,17.61-14.3,31.91-31.91,31.91h-.08c-17.61,0-31.91-14.3-31.91-31.91V16.45h0Z"/><path class="cls-3" d="M73.11,67.14V25.37l-24.88,33.41,18.75,25.67s6.03-6.97,6.13-17.32Z"/><path class="cls-3" d="M15.85,67.14V24.92l25.13,33.86-18.94,25.73s-6.18-7.33-6.2-17.37Z"/><path class="cls-4" d="M26.16,88.54s7.62,7.06,18.97,6.54c11.34-.52,17.77-6.62,17.77-6.62l-18.29-24.8-18.45,24.87Z"/><polygon class="cls-1" points="19.63 19.77 44.61 54.06 69.73 19.77 19.63 19.77"/><g><path class="cls-7" d="M15.95,20.01c16.25,21.37,33.82,45.1,49.49,66.89C49.19,65.54,31.63,41.81,15.95,20.01h0Z"/><path class="cls-7" d="M73.57,20.01c-15.7,21.79-33.28,45.53-49.56,66.89,15.7-21.79,33.28-45.53,49.56-66.89h0Z"/></g></g><g><path class="cls-7" d="M12.54,4.77v-.54h1.73v.71h-.15l-1.59-.17Zm1.73,6.38v.71h-1.73v-.54l1.59-.17h.15Zm-.75-3.35c0-1.19,0-2.38-.03-3.57h1.56c-.03,1.16-.03,2.36-.03,3.57v.41c0,1.28,0,2.47,.03,3.66h-1.56c.03-1.16,.03-2.36,.03-3.66v-.41Zm.75,3.47h1.43c1.56,0,2.46-1.17,2.46-3.22s-.9-3.22-2.4-3.22h-1.49v-.6h1.67c2.32,0,3.82,1.4,3.82,3.81s-1.66,3.82-4.04,3.82h-1.46v-.6Z"/><path class="cls-7" d="M20.38,4.77v-.54h3.47v.54l-1.6,.17h-.29l-1.59-.17Zm1.87,6.38l1.6,.17v.54h-3.47v-.54l1.59-.17h.29Zm-.88-3.35c0-1.19,0-2.38-.03-3.57h1.56c-.03,1.16-.03,2.36-.03,3.57v.5c0,1.19,0,2.39,.03,3.57h-1.56c.03-1.16,.03-2.36,.03-3.57v-.5Z"/><path class="cls-7" d="M24.37,11.33l1.17-.17h.22l1.18,.17v.54h-2.56v-.54Zm3.35-7.13h.94l2.62,7.67h-1.53l-2.14-6.53,.35-.3-2.27,6.83h-.61l2.64-7.67Zm-1.29,4.72h3.11l.22,.6h-3.52l.19-.6Zm2.1,2.43l1.37-.17h.5l1.45,.17v.53h-3.33v-.53Z"/><path class="cls-7" d="M31.92,4.85l.68-.61-.33,2.1h-.81l.07-2.1h6.53l.06,2.1h-.8l-.33-2.1,.67,.61h-5.73Zm3.04,6.31l1.67,.17v.54h-3.7v-.54l1.66-.17h.37Zm-.92-3.35c0-1.19,0-2.38-.03-3.57h1.56c-.03,1.16-.03,2.36-.03,3.57v.5c0,1.19,0,2.39,.03,3.57h-1.56c.03-1.16,.03-2.36,.03-3.57v-.5Z"/><path class="cls-7" d="M45.82,8.05c0,2.59-1.74,4.01-3.58,4.01s-3.59-1.36-3.59-4.01,1.76-4.01,3.59-4.01,3.58,1.36,3.58,4.01Zm-3.58,3.39c1.39,0,1.95-1.57,1.95-3.39s-.56-3.39-1.95-3.39-1.96,1.58-1.96,3.39,.57,3.39,1.96,3.39Z"/><path class="cls-7" d="M46.51,4.77v-.54h3.51v.54l-1.6,.17h-.33l-1.59-.17Zm1.73,6.38v.71h-1.73v-.54l1.59-.17h.15Zm-.78-6.92h1.56c-.03,1.18-.03,2.37-.03,3.57v.7c0,1,0,2.19,.03,3.36h-1.56c.03-1.18,.03-2.37,.03-3.45v-.62c0-1.2,0-2.4-.03-3.57Zm5,5.43l-.12,2.21h-4.11v-.62h3.71l-.76,.62,.46-2.21h.81Z"/><path class="cls-7" d="M52.92,11.33l1.17-.17h.22l1.18,.17v.54h-2.56v-.54Zm3.35-7.13h.94l2.62,7.67h-1.53l-2.14-6.53,.35-.3-2.27,6.83h-.61l2.64-7.67Zm-1.29,4.72h3.11l.22,.6h-3.52l.19-.6Zm2.1,2.43l1.37-.17h.5l1.45,.17v.53h-3.33v-.53Z"/><path class="cls-7" d="M60.87,11.33l1.22-.17h.28l1.4,.17v.54h-2.9v-.54Zm.66-6.71l.69,.3-1.31-.14v-.54h2.17l4.45,6.11v1.58h-.68l-5.32-7.3Zm.32-.38l.66,.54v7.09h-.66V4.23Zm3.75,0h2.9v.54l-1.16,.17h-.28l-1.47-.17v-.54Zm1.26,0h.66v7.69l-.66-.66V4.23Z"/><path class="cls-7" d="M69.22,4.77v-.54h1.73v.71h-.15l-1.59-.17Zm1.73,6.38v.71h-1.73v-.54l1.59-.17h.15Zm-.75-3.35c0-1.19,0-2.38-.03-3.57h1.56c-.03,1.16-.03,2.36-.03,3.57v.41c0,1.28,0,2.47,.03,3.66h-1.56c.03-1.16,.03-2.36,.03-3.66v-.41Zm.75,3.47h1.43c1.56,0,2.46-1.17,2.46-3.22s-.9-3.22-2.4-3.22h-1.49v-.6h1.67c2.32,0,3.82,1.4,3.82,3.81s-1.66,3.82-4.04,3.82h-1.46v-.6Z"/></g><g><path class="cls-7" d="M49.47,104.22c-20.57,2.47-38.65-9.54-42.31-30.29-.93-4.73-.69-9.58-.7-14.37l.05-14.37c.01-7.14,.1-21.59,.2-28.74,.1,7.18,.19,21.56,.2,28.74l.05,14.37c.08,4.79-.21,9.59,.69,14.28,3.51,20.63,21.46,32.45,41.82,30.38h0Z"/><path class="cls-7" d="M82.47,16.45c.31,16.37,.26,34.37-.15,50.73-.31-16.37-.26-34.37,.15-50.73h0Z"/></g><text class="cls-6" transform="translate(53.34 105.35) rotate(-15.26) scale(1.02 1)"><tspan x="0" y="0">T</tspan></text><text class="cls-6" transform="translate(56.53 104.44) rotate(-19.37) scale(1.02 1)"><tspan x="0" y="0">i</tspan></text><text class="cls-6" transform="translate(58.11 103.9) rotate(-22.76) scale(1.02 1)"><tspan x="0" y="0">e</tspan></text><text class="cls-6" transform="translate(60.7 102.8) rotate(-26.49) scale(1.02 1)"><tspan x="0" y="0">r</tspan></text><text class="cls-6" transform="translate(62.77 101.76) rotate(-29.73) scale(1.02 1)"><tspan x="0" y="0">r</tspan></text><text class="cls-6" transform="translate(64.78 100.62) rotate(-33.2) scale(1.02 1)"><tspan x="0" y="0">a</tspan></text><text class="cls-6" transform="translate(67.07 99.1) rotate(-35.98) scale(1.02 1)"><tspan x="0" y="0"> </tspan></text><text class="cls-6" transform="translate(68.15 98.33) rotate(-38.99) scale(1.02 1)"><tspan x="0" y="0">d</tspan></text><text class="cls-6" transform="translate(70.58 96.36) rotate(-43.15) scale(1.02 1)"><tspan x="0" y="0">e</tspan></text><text class="cls-6" transform="translate(72.59 94.45) rotate(-46.06) scale(1.02 1)"><tspan x="0" y="0"> </tspan></text><text class="cls-6" transform="translate(73.55 93.5) rotate(-49.83) scale(1.02 1)"><tspan x="0" y="0">D</tspan></text><text class="cls-6" transform="translate(76.01 90.53) rotate(-53.99) scale(1.02 1)"><tspan x="0" y="0">i</tspan></text><text class="cls-6" transform="translate(77.02 89.15) rotate(-57.47) scale(1.02 1)"><tspan x="0" y="0">a</tspan></text><text class="cls-6" transform="translate(78.51 86.78) rotate(-61.12) scale(1.02 1)"><tspan x="0" y="0">t</tspan></text><text class="cls-6" transform="translate(79.41 85.17) rotate(-65.03) scale(1.02 1)"><tspan x="0" y="0">o</tspan></text><text class="cls-6" transform="translate(80.76 82.39) rotate(-71.6) scale(1.02 1)"><tspan x="0" y="0">m</tspan></text><text class="cls-6" transform="translate(82.25 77.66) rotate(-78.08) scale(1.02 1)"><tspan x="0" y="0">e</tspan></text><text class="cls-6" transform="translate(82.82 74.94) rotate(-82.6) scale(1.02 1)"><tspan x="0" y="0">a</tspan></text></g><g><path class="cls-2" d="M48.9,85.68c0,2.02-1.88,1.62-4.2,1.62s-4.2,.4-4.2-1.62,1.88-3.66,4.2-3.66,4.2,1.64,4.2,3.66Z"/><g><g><path class="cls-7" d="M47.08,79.41c0,.25-.21,.46-.46,.46s-.46-.21-.46-.46,.21-.46,.46-.46,.46,.21,.46,.46Z"/><path class="cls-7" d="M48.46,79.18c0,.25-.21,.46-.46,.46s-.46-.21-.46-.46,.21-.46,.46-.46,.46,.21,.46,.46Z"/><path class="cls-7" d="M49.82,79.42c0,.25-.21,.46-.46,.46s-.46-.21-.46-.46,.21-.46,.46-.46,.46,.21,.46,.46Z"/><path class="cls-7" d="M50.87,80.34c0,.25-.21,.46-.46,.46s-.46-.21-.46-.46,.21-.46,.46-.46,.46,.21,.46,.46Z"/><path class="cls-7" d="M51.33,81.56c0,.25-.21,.46-.46,.46s-.46-.21-.46-.46,.21-.46,.46-.46,.46,.21,.46,.46Z"/><path class="cls-7" d="M51.22,82.94c0,.25-.21,.46-.46,.46s-.46-.21-.46-.46,.21-.46,.46-.46,.46,.21,.46,.46Z"/><path class="cls-7" d="M50.76,84.22c0,.25-.21,.46-.46,.46s-.46-.21-.46-.46,.21-.46,.46-.46,.46,.21,.46,.46Z"/><circle class="cls-7" cx="49.53" cy="85.33" r=".46"/></g><g><path class="cls-7" d="M42.28,79.41c0,.25,.21,.46,.46,.46s.46-.21,.46-.46-.21-.46-.46-.46-.46,.21-.46,.46Z"/><circle class="cls-7" cx="41.36" cy="79.18" r=".46"/><path class="cls-7" d="M39.55,79.42c0,.25,.21,.46,.46,.46s.46-.21,.46-.46-.21-.46-.46-.46-.46,.21-.46,.46Z"/><path class="cls-7" d="M38.5,80.34c0,.25,.21,.46,.46,.46s.46-.21,.46-.46-.21-.46-.46-.46-.46,.21-.46,.46Z"/><path class="cls-7" d="M38.04,81.56c0,.25,.21,.46,.46,.46s.46-.21,.46-.46-.21-.46-.46-.46-.46,.21-.46,.46Z"/><path class="cls-7" d="M38.14,82.94c0,.25,.21,.46,.46,.46s.46-.21,.46-.46-.21-.46-.46-.46-.46,.21-.46,.46Z"/><path class="cls-7" d="M38.6,84.22c0,.25,.21,.46,.46,.46s.46-.21,.46-.46-.21-.46-.46-.46-.46,.21-.46,.46Z"/><path class="cls-7" d="M39.38,85.33c0,.25,.21,.46,.46,.46s.46-.21,.46-.46-.21-.46-.46-.46-.46,.21-.46,.46Z"/></g><path class="cls-7" d="M45.84,79.87c0,.63-.51,1.14-1.14,1.14s-1.14-.51-1.14-1.14,.51-1.14,1.14-1.14,1.14,.51,1.14,1.14Z"/><rect class="cls-7" x="39.83" y="85.33" width="9.69" height="2.19"/><rect class="cls-7" x="44.1" y="80.56" width="1.2" height="4.77"/><path class="cls-7" d="M40.38,85.92c-.13-.15-3.13-3.62-1.15-5.72,1.85-1.96,4.56-.43,5.74,.65l-.56,.61c-.12-.11-2.83-2.55-4.59-.69-1.47,1.56,1.14,4.58,1.17,4.61l-.62,.54Z"/><path class="cls-7" d="M49,85.92l-.62-.54s2.64-3.06,1.17-4.61c-1.76-1.86-4.47,.58-4.59,.69l-.56-.61c1.18-1.08,3.89-2.6,5.74-.65,1.98,2.1-1.02,5.57-1.15,5.72Z"/><polygon class="cls-7" points="45.6 79.42 43.76 79.42 44.29 78.82 44.44 76.74 44.92 76.74 45.07 78.84 45.6 79.42"/><rect class="cls-7" x="43.98" y="77.16" width="1.39" height=".62"/><rect class="cls-7" x="44.23" y="76.27" width=".91" height=".47" rx=".17" ry=".17"/><rect class="cls-7" x="45.14" y="77.25" width=".93" height=".45" rx=".16" ry=".16" transform="translate(123.07 31.87) rotate(90)"/><rect class="cls-7" x="43.3" y="77.25" width=".93" height=".45" rx=".16" ry=".16" transform="translate(121.23 33.71) rotate(90)"/></g></g><g><path class="cls-7" d="M69.75,57.41s.06-.13,.18-.13c.11,0,.27,.14,.39,.11,.12-.03,.18-.16,.2-.15,.03,0,.04,.25-.07,.33-.2,.15-.31,0-.4,.11-.04,.04-.32,.08-.3-.27Z"/><path class="cls-7" d="M69.77,57.59s.11-.09,.22-.04c.11,.04,.18,.24,.3,.28,.12,.03,.23-.06,.25-.05,.02,.02-.07,.24-.21,.26-.25,.04-.28-.13-.41-.08-.05,.02-.33-.07-.15-.37Z"/><path class="cls-7" d="M69.76,57.8s.13-.04,.22,.04c.08,.08,.08,.29,.18,.37,.1,.07,.24,.02,.25,.05,.01,.02-.15,.2-.29,.17-.25-.05-.21-.22-.35-.22-.06,0-.28-.18,0-.4Z"/><path class="cls-7" d="M69.75,57.98s.14,0,.19,.11-.02,.3,.05,.4c.07,.1,.22,.1,.22,.13,0,.03-.21,.13-.33,.06-.22-.13-.12-.28-.26-.32-.05-.02-.2-.27,.13-.38Z"/><path class="cls-7" d="M61.1,56.47l-4.7,1.42,.24,.73s3.19,0,4.9-.39c1.04-.24,.97-1.75-.45-1.75Z"/><path class="cls-7" d="M60.18,53.93c.07,.56,.34,.43,.68,.38,.95-.14,.82-.19,.77-.55-.07-.49-.58-.61-.58-.61,.23,.22,.34,.66,.03,.78-.13,.05-.42,.08-.45-.03-.02-.09-.47-.08-.46,.03Z"/><path class="cls-7" d="M67.43,58.77s.57,.3,1.07,.13c.6-.21,1.42-.8,.75-2.17-.66-1.37-2.39-2.12-2.22-3.36,.2-1.42,2.48-1.31,2.71-.12,.29,1.51-2.3,2.73-2.38,3.04-.08,.31-.46,.13-.37-.22,.09-.35,2.75-1.41,2.51-2.7-.16-.86-2.01-1.08-2.14,.06-.11,.99,1.89,2.25,2.39,3.21,.59,1.13,.24,2.43-.89,2.83-.89,.32-1.37,.06-1.37,.06l-.06-.75Z"/><path class="cls-7" d="M61.87,52.02s-.01-.24,.15-.35c.16-.11,.52-.02,.68-.16,.16-.14,.13-.39,.17-.4,.04-.01,.27,.33,.17,.55-.18,.39-.45,.26-.5,.5-.02,.09-.41,.39-.67-.15Z"/><path class="cls-7" d="M69.03,62.24s-.01-.17,.11-.25c.12-.08,.37-.01,.49-.11,.12-.1,.1-.28,.13-.29,.03,0,.19,.24,.12,.4-.13,.28-.33,.19-.36,.36-.01,.07-.3,.28-.48-.11Z"/><path class="cls-7" d="M69.16,62.42s.07-.16,.21-.18c.14-.02,.34,.16,.49,.12,.15-.04,.21-.21,.24-.2s.07,.3-.07,.41c-.24,.19-.38,.02-.48,.16-.04,.05-.39,.12-.39-.31Z"/><path class="cls-7" d="M69.23,62.64s.13-.11,.27-.06,.23,.29,.38,.32c.15,.03,.28-.09,.31-.07,.03,.02-.08,.3-.25,.33-.3,.06-.35-.15-.5-.07-.06,.03-.41-.07-.2-.45Z"/><path class="cls-7" d="M69.28,63.04s.14-.06,.25,.01c.1,.08,.13,.31,.25,.38,.12,.07,.27,0,.28,.02s-.14,.24-.3,.23c-.28-.02-.26-.22-.42-.19-.06,0-.33-.17-.06-.44Z"/><path class="cls-7" d="M69.24,63.36s.14,0,.2,.09,.01,.3,.09,.39c.08,.09,.22,.07,.23,.1,0,.02-.19,.16-.32,.1-.23-.1-.15-.26-.29-.29-.05-.01-.23-.24,.08-.39Z"/><path class="cls-7" d="M64.21,62.89s.08-.15,.22-.15c.14,0,.32,.18,.47,.15,.15-.03,.22-.19,.25-.18s.04,.3-.1,.4c-.25,.17-.37,0-.48,.12-.05,.05-.39,.08-.35-.33Z"/><path class="cls-7" d="M64.23,63.11s.14-.1,.26-.04c.13,.06,.21,.3,.35,.35s.28-.07,.31-.05c.02,.02-.1,.29-.27,.31-.3,.04-.33-.17-.49-.11-.06,.02-.39-.1-.17-.46Z"/><path class="cls-7" d="M64.17,63.32s.17-.03,.25,.08c.09,.11,.05,.36,.16,.47s.28,.07,.29,.1-.22,.21-.38,.15c-.29-.1-.22-.3-.38-.32-.07,0-.3-.27,.06-.48Z"/><path class="cls-7" d="M64.01,63.69s.15,.02,.2,.14-.05,.33,.02,.44c.07,.12,.23,.13,.23,.16,0,.03-.24,.13-.37,.04-.22-.16-.11-.32-.25-.37-.06-.02-.19-.31,.17-.4Z"/><path class="cls-7" d="M63.82,63.93s.12,.06,.13,.17-.14,.26-.12,.38c.02,.12,.15,.18,.14,.2,0,.02-.24,.03-.32-.08-.14-.2,0-.3-.1-.39-.04-.04-.07-.32,.27-.28Z"/><path class="cls-7" d="M62.41,52.19s.06-.23,.25-.29c.19-.05,.5,.14,.69,.05,.19-.09,.24-.33,.28-.33,.04,0,.16,.39,0,.58-.28,.32-.51,.12-.62,.33-.04,.08-.51,.25-.6-.34Z"/><path class="cls-7" d="M62.94,52.53s.15-.18,.35-.15c.19,.03,.39,.34,.6,.34,.21,0,.36-.19,.4-.17s-.03,.42-.25,.52c-.39,.16-.51-.11-.7,.03-.08,.06-.57,0-.39-.56Z"/><path class="cls-7" d="M63.27,53.13s.19-.14,.37-.06c.18,.08,.29,.43,.49,.49,.2,.06,.4-.1,.43-.07,.03,.03-.14,.4-.38,.44-.42,.06-.46-.24-.69-.16-.09,.03-.55-.14-.23-.64Z"/><path class="cls-7" d="M63.56,53.83s.22-.1,.38,.02c.16,.12,.19,.48,.38,.58,.19,.1,.41-.01,.44,.03,.03,.04-.22,.36-.46,.35-.43-.03-.4-.33-.64-.3-.09,.02-.51-.25-.09-.68Z"/><path class="cls-7" d="M63.48,54.46s.23-.05,.36,.1c.13,.15,.09,.51,.25,.65s.4,.08,.42,.12c.02,.04-.29,.31-.52,.24-.41-.12-.32-.41-.56-.42-.09,0-.45-.36,.05-.68Z"/><path class="cls-7" d="M63.27,55.15s.23-.05,.36,.1c.13,.15,.09,.51,.25,.65,.16,.14,.4,.08,.42,.12s-.29,.31-.52,.24c-.41-.12-.32-.41-.56-.42-.09,0-.45-.36,.05-.68Z"/><path class="cls-7" d="M60.25,53.44s.05,.13,.08,.14c.03,.01,.05-.14,.05-.14h-.12Z"/><path class="cls-7" d="M60.5,53.87s-.05-.13-.08-.14-.04,.14-.04,.14h.12Z"/><path class="cls-7" d="M61.26,53.49s-.12,.18-.27,.19c-.15,.01-.43-.12-.62-.07-.19,.04-.49,.26-.64,.25-.15-.01-.24-.16-.22-.22l.02-.06s-.07,0-.09,.12c-.02,.12,.07,.37,.3,.31,.23-.06,.5-.35,.63-.33,.13,.01,.41,.21,.57,.17,.15-.04,.31-.15,.31-.36Z"/><path class="cls-7" d="M67.23,65.49s-.11-.02-.12-.04c-.01-.02,.09-.08,.16-.07,.07,0,.04,.12-.03,.11Z"/><path class="cls-7" d="M67.08,65.92s-.11-.02-.12-.04c-.01-.02,.09-.08,.16-.07,.07,0,.04,.12-.03,.11Z"/><path class="cls-7" d="M67.36,66.36s-.11-.02-.12-.04c-.01-.02,.09-.08,.16-.07,.07,0,.04,.12-.03,.11Z"/><path class="cls-7" d="M60.76,64.99s-.11-.02-.12-.04c-.01-.02,.09-.08,.16-.07s.04,.12-.03,.11Z"/><path class="cls-7" d="M60.61,65.42s-.11-.02-.12-.04c-.01-.02,.09-.08,.16-.07,.07,0,.04,.12-.03,.11Z"/><path class="cls-7" d="M60.88,65.86s-.11-.02-.12-.04c-.01-.02,.09-.08,.16-.07s.04,.12-.03,.11Z"/><path class="cls-7" d="M68.13,65.62c-.14-.03-.04-.39-.29-.44-.37-.07-.61,.31-.61,.31,0,0,.01,.02,.03,.05,.05-.04,.17-.11,.31-.12,.17,0,.27,.07,.28,.08h0s-.08-.05-.24-.05c-.16,0-.28,.11-.31,.14,.07,.09,.19,.21,.37,.22,.29,.01,.72,0,.72,0v-.19s-.12,.03-.26,0Z"/><path class="cls-7" d="M68.39,66.18c-.14-.03-.13-.25-.39-.3-.21-.04-.35,.03-.45,.12,.03-.02,.06-.03,.09-.04,.17-.05,.3,.02,.3,.02,0,0-.07-.04-.25,0-.13,.03-.22,.13-.26,.18-.05,.1-.07,.18-.07,.18,0,0,.18,.21,.47,.23,.39,.04,.62-.05,.79-.12,.31-.13,.38-.4,.38-.4,0,0-.47,.14-.61,.11Z"/><path class="cls-7" d="M61.66,65.12c-.14-.03-.04-.39-.29-.44-.37-.07-.61,.31-.61,.31,0,0,.01,.02,.03,.06,.05-.04,.17-.11,.31-.12,.17,0,.27,.07,.28,.08h0s-.08-.05-.24-.05c-.12,0-.24,.08-.31,.14,.07,.09,.19,.21,.37,.22,.29,.01,.72,0,.72,0v-.19s-.12,.03-.26,0Z"/><path class="cls-7" d="M67.19,55.85s-.44,.02-.5,.42c-.06,.39,.47,.56,.5,.64,.06,.18-.13,.07-.14,.14,0,.07,.01,.22,.27,.21,.17,0,.44-.18,.33-.52-.11-.34-.42-.44-.42-.64s-.04-.24-.04-.24Z"/><path class="cls-7" d="M56.51,58.1s-.53-.12-.73-.05c-.2,.08-.42,.4-.42,.4,0,0,.36,.26,.6,.2,.17-.05,.61-.27,.61-.27l-.06-.28Z"/><path class="cls-7" d="M55.58,57.67s-.1-.05-.11-.07c0-.02,.1-.05,.17-.02,.07,.03,0,.13-.06,.09Z"/><path class="cls-7" d="M55.38,58.5s-.11,0-.13-.02c-.01-.02,.08-.09,.15-.09,.07,0,.06,.12-.02,.11Z"/><path class="cls-7" d="M55.92,59.12s-.11,.04-.13,.03,.04-.11,.1-.14c.07-.03,.1,.08,.02,.11Z"/><path class="cls-7" d="M56.11,57.55c-.2-.05-.5,.05-.5,.05,0,0,.03,.26,.18,.4,.02,0,.04-.02,.07-.02,.17-.02,.3,.07,.3,.07,0,0-.07-.02-.21-.03-.04,0-.08,0-.11,.02,.02,0,.03,.02,.05,.03,.17,.06,.58,.08,.58,.08l.09-.17s-.24-.38-.44-.43Z"/><path class="cls-7" d="M56.58,58.35s-.4,.14-.55,.23c-.03,.02-.05,.04-.07,.06,.02,0,.04,0,.06-.01,.15-.04,.22-.09,.22-.09,0,0-.12,.13-.31,.15h0c-.08,.17-.04,.41-.04,.41,0,0,.27,0,.47-.08,.23-.1,.34-.53,.34-.53l-.12-.15Z"/><path class="cls-7" d="M56.75,54.81s-.41-.36-.62-.38-.56,.15-.56,.15c0,0,.2,.4,.44,.45,.17,.04,.66,.05,.66,.05l.08-.28Z"/><path class="cls-7" d="M56.13,54s-.07-.09-.06-.11c0-.02,.11,0,.16,.06,.05,.06-.05,.12-.1,.05Z"/><path class="cls-7" d="M55.56,54.64s-.1-.06-.1-.08,.11-.04,.17,0c.06,.03,0,.13-.07,.09Z"/><path class="cls-7" d="M55.75,55.44s-.11-.01-.13-.03c-.01-.02,.08-.08,.16-.07,.07,0,.05,.12-.03,.11Z"/><path class="cls-7" d="M56.66,54.14c-.16-.14-.47-.19-.47-.19,0,0-.09,.25-.03,.43,.02,0,.05,0,.07,.02,.16,.06,.23,.2,.23,.2,0,0-.05-.06-.17-.12-.03-.02-.07-.03-.11-.04,0,.02,.02,.03,.03,.04,.12,.13,.47,.34,.47,.34l.16-.1s-.03-.45-.19-.59Z"/><path class="cls-7" d="M56.69,55.07s-.41-.06-.59-.06c-.03,0-.06,0-.09,.02,.02,0,.04,.01,.06,.02,.15,.03,.23,.03,.23,.03,0,0-.16,.06-.34,0h0c-.15,.11-.23,.34-.23,.34,0,0,.24,.13,.45,.15,.25,.02,.55-.3,.55-.3l-.04-.19Z"/><path class="cls-7" d="M59.23,55.89c.15-.36,.38-.57,.57-.68l-3.07-.68-.16,.76s1.27,.64,2.58,1.28c-.03-.18-.03-.41,.08-.67Z"/><path class="cls-7" d="M69.47,62.25c-.15-.53-1.68-.76-1.76-1.5-.09-.74,.18-1.74-.5-2.18-.66-.43-2.17-.31-1.97,.99,.15,.57,.31,1.73,.31,1.74,.12,.47,.29,.9,.5,1.04,.74,.49,1.97,.56,2.18,.74s-.02,2.21-.05,2.44-.35,.44-.27,.56c.09,.12,.83,.15,1.06,0,.24-.15,.64-3.3,.49-3.83Z"/><path class="cls-7" d="M67.63,59.09c-.15-.86-2.03-1.51-4.15-3.07,.23-.56,.36-1.13,.38-1.55,.07-1.22-.94-2.4-1.77-2.6-.82-.2-1.34,.03-1.49,.15-.15,.12-.06,.44-.06,.44,0,0-.57,0-.59,.18,0,.04,0,.07,0,.11h0s.05,.07,.13,.1,.2-.05,.2-.05c0,0-.07,.12-.16,.13-.06,0-.12,0-.16-.02,.01,.18,.05,.34,.1,.44,.07,.15,.52,.1,.53,0,.05-.46,.77-.14,.86,.15,.09,.29,.1,.51,.05,.69,.16-.05,.4-.13,.45-.2,.08-.12,.1-.44,.1-.44,0,0,.02,.31-.01,.43-.03,.12-.38,.24-.57,.3-.1,.23-.29,.4-.52,.59-.16,.13-1.25,.44-1.59,1.07-.13,.24-.17,.58-.07,.91l1.28-.22-1.23,.37c.15,.36,.47,.69,1.03,.88,.13,.18,.28,.34,.47,.47,.54-.08,1.13-.2,1.29-.34,.27-.24,.17-.82,.17-.82,0,0,.28,.54-.07,.9-.15,.16-.69,.28-1.22,.37,.14,.08,.3,.14,.47,.18,.85,.21,2.44,.21,3.03,.34h0s.44,.07,.61,.29c.06,.08,.13,.33,.19,.64,.19,.27,.44,.52,.8,.58,1.18,.2,1.66-.55,1.52-1.4Z"/><path class="cls-7" d="M68.18,65.89c-.15-.03-.13-.32-.4-.42-.42-.14-.71,.39-.71,.39,0,0,.11,.18,.32,.26,.05-.05,.14-.14,.26-.17,.17-.05,.3,.02,.3,.02,0,0-.07-.04-.25,0-.12,.03-.21,.11-.25,.17,.04,.01,.09,.02,.14,.03,.32,.01,.81,0,.81,0v-.22s-.06-.04-.21-.07Z"/><path class="cls-7" d="M61.92,65.68c-.14-.03-.13-.25-.39-.3-.21-.04-.36,.03-.46,.13,.03-.02,.06-.03,.1-.04,.17-.05,.3,.02,.3,.02,0,0-.07-.04-.25,0-.14,.03-.23,.14-.27,.19-.05,.09-.06,.17-.06,.17,0,0,.18,.21,.47,.23,.39,.04,.62-.05,.79-.12,.31-.13,.38-.4,.38-.4,0,0-.47,.14-.61,.11Z"/><path class="cls-7" d="M61.71,65.39c-.15-.03-.13-.32-.4-.42-.42-.14-.71,.39-.71,.39,0,0,.12,.18,.32,.27,.05-.05,.14-.14,.26-.17,.17-.05,.3,.02,.3,.02,0,0-.07-.04-.25,0-.12,.03-.2,.11-.25,.16,.04,.01,.09,.02,.14,.03,.32,.01,.81,0,.81,0v-.22s-.06-.04-.21-.07Z"/><path class="cls-7" d="M65.12,59.39c-.05-.15-.28-.27-.44-.34-.12,.09-1.56,1.24-1.63,2.22-.06,.88-.17,1.88-.19,2.15-.02,.27-.85,1.35-1.05,1.47-.21,.12-.57,.32-.61,.46,0,.03,.01,.07,.06,.11,.13-.01,.22,.04,.22,.04,0,0-.05-.03-.19-.01,.18,.17,.63,.38,.84,.38,.28,0,1.67-1.52,2-1.96,.33-.44,.29-1.64,.82-2.15,.13-.12,.3-.25,.49-.37,0,0-.07-1.2-.31-1.99Z"/></g><g><g><g><path class="cls-7" d="M44.89,33.75v9.96s.94-.25,.94-1.03-.46-1.59-.46-2.18c0-1.09,1.14-2.77,1.14-3.85,0-1.27-1.61-2.9-1.61-2.9Z"/><polygon class="cls-7" points="47.02 40.87 44.98 40.87 44.98 40.2 47.02 40.2 46.79 40.53 47.02 40.87"/><path class="cls-7" d="M47.24,42.79s-1.24-.59-1.24-2.28,.84-3.13,2.02-3.13c.96,0,1.54,.53,1.54,1.16s-.3,.94-.3,.94c0,0-.33-1.09-1.21-1.09-.81,0-1.6,1.13-1.6,2.21,0,1.27,.79,2.19,.79,2.19Z"/><circle class="cls-7" cx="48.65" cy="39.02" r=".77"/><path class="cls-7" d="M46.95,42.33c0,.28,.23,.51,.51,.51s.51-.23,.51-.51-.23-.51-.51-.51-.51,.23-.51,.51Z"/></g><g><path class="cls-7" d="M44.89,33.75v9.96s-.94-.25-.94-1.03,.46-1.59,.46-2.18c0-1.09-1.14-2.77-1.14-3.85,0-1.27,1.61-2.9,1.61-2.9Z"/><polygon class="cls-7" points="42.76 40.87 44.81 40.87 44.81 40.2 42.76 40.2 42.99 40.53 42.76 40.87"/><path class="cls-7" d="M42.55,42.79s1.24-.59,1.24-2.28-.84-3.13-2.02-3.13c-.96,0-1.54,.53-1.54,1.16s.3,.94,.3,.94c0,0,.33-1.09,1.21-1.09,.81,0,1.6,1.13,1.6,2.21,0,1.27-.79,2.19-.79,2.19Z"/><path class="cls-7" d="M41.9,39.02c0,.42-.34,.77-.77,.77s-.77-.34-.77-.77,.34-.77,.77-.77,.77,.34,.77,.77Z"/><path class="cls-7" d="M42.83,42.33c0,.28-.23,.51-.51,.51s-.51-.23-.51-.51,.23-.51,.51-.51,.51,.23,.51,.51Z"/></g></g><g><g><path class="cls-7" d="M36.48,22.87v9.96s.94-.25,.94-1.03-.46-1.59-.46-2.18c0-1.09,1.14-2.77,1.14-3.85,0-1.27-1.61-2.9-1.61-2.9Z"/><polygon class="cls-7" points="38.61 29.98 36.56 29.98 36.56 29.31 38.61 29.31 38.38 29.65 38.61 29.98"/><path class="cls-7" d="M38.83,31.9s-1.24-.59-1.24-2.28,.84-3.13,2.02-3.13c.96,0,1.54,.53,1.54,1.16s-.3,.94-.3,.94c0,0-.33-1.09-1.21-1.09-.81,0-1.6,1.13-1.6,2.21,0,1.27,.79,2.19,.79,2.19Z"/><circle class="cls-7" cx="40.24" cy="28.13" r=".77"/><path class="cls-7" d="M38.54,31.45c0,.28,.23,.51,.51,.51s.51-.23,.51-.51-.23-.51-.51-.51-.51,.23-.51,.51Z"/></g><g><path class="cls-7" d="M36.48,22.87v9.96s-.94-.25-.94-1.03,.46-1.59,.46-2.18c0-1.09-1.14-2.77-1.14-3.85,0-1.27,1.61-2.9,1.61-2.9Z"/><polygon class="cls-7" points="34.35 29.98 36.4 29.98 36.4 29.31 34.35 29.31 34.58 29.65 34.35 29.98"/><path class="cls-7" d="M34.13,31.9s1.24-.59,1.24-2.28-.84-3.13-2.02-3.13c-.96,0-1.54,.53-1.54,1.16s.3,.94,.3,.94c0,0,.33-1.09,1.21-1.09,.81,0,1.6,1.13,1.6,2.21,0,1.27-.79,2.19-.79,2.19Z"/><path class="cls-7" d="M33.49,28.13c0,.42-.34,.77-.77,.77s-.77-.34-.77-.77,.34-.77,.77-.77,.77,.34,.77,.77Z"/><path class="cls-7" d="M34.42,31.45c0,.28-.23,.51-.51,.51s-.51-.23-.51-.51,.23-.51,.51-.51,.51,.23,.51,.51Z"/></g></g><g><g><path class="cls-7" d="M53.31,22.87v9.96s.94-.25,.94-1.03-.46-1.59-.46-2.18c0-1.09,1.14-2.77,1.14-3.85,0-1.27-1.61-2.9-1.61-2.9Z"/><polygon class="cls-7" points="55.44 29.98 53.39 29.98 53.39 29.31 55.44 29.31 55.21 29.65 55.44 29.98"/><path class="cls-7" d="M55.66,31.9s-1.24-.59-1.24-2.28,.84-3.13,2.02-3.13c.96,0,1.54,.53,1.54,1.16s-.3,.94-.3,.94c0,0-.33-1.09-1.21-1.09-.81,0-1.6,1.13-1.6,2.21,0,1.27,.79,2.19,.79,2.19Z"/><circle class="cls-7" cx="57.07" cy="28.13" r=".77"/><path class="cls-7" d="M55.37,31.45c0,.28,.23,.51,.51,.51s.51-.23,.51-.51-.23-.51-.51-.51-.51,.23-.51,.51Z"/></g><g><path class="cls-7" d="M53.31,22.87v9.96s-.94-.25-.94-1.03,.46-1.59,.46-2.18c0-1.09-1.14-2.77-1.14-3.85,0-1.27,1.61-2.9,1.61-2.9Z"/><polygon class="cls-7" points="51.18 29.98 53.23 29.98 53.23 29.31 51.18 29.31 51.41 29.65 51.18 29.98"/><path class="cls-7" d="M50.96,31.9s1.24-.59,1.24-2.28-.84-3.13-2.02-3.13c-.96,0-1.54,.53-1.54,1.16s.3,.94,.3,.94c0,0,.33-1.09,1.21-1.09,.81,0,1.6,1.13,1.6,2.21,0,1.27-.79,2.19-.79,2.19Z"/><path class="cls-7" d="M50.31,28.13c0,.42-.34,.77-.77,.77s-.77-.34-.77-.77,.34-.77,.77-.77,.77,.34,.77,.77Z"/><path class="cls-7" d="M51.25,31.45c0,.28-.23,.51-.51,.51s-.51-.23-.51-.51,.23-.51,.51-.51,.51,.23,.51,.51Z"/></g></g></g><g><path class="cls-7" d="M19.3,57.41s-.06-.13-.18-.13c-.11,0-.27,.14-.39,.11-.12-.03-.18-.16-.2-.15-.03,0-.04,.25,.07,.33,.2,.15,.31,0,.4,.11,.04,.04,.32,.08,.3-.27Z"/><path class="cls-7" d="M19.28,57.59s-.11-.09-.22-.04c-.11,.04-.18,.24-.3,.28-.12,.03-.23-.06-.25-.05-.02,.02,.07,.24,.21,.26,.25,.04,.28-.13,.41-.08,.05,.02,.33-.07,.15-.37Z"/><path class="cls-7" d="M19.3,57.8s-.13-.04-.22,.04c-.08,.08-.08,.29-.18,.37-.1,.07-.24,.02-.25,.05-.01,.02,.15,.2,.29,.17,.25-.05,.21-.22,.35-.22,.06,0,.28-.18,0-.4Z"/><path class="cls-7" d="M19.3,57.98s-.14,0-.19,.11,.02,.3-.05,.4c-.07,.1-.22,.1-.22,.13,0,.03,.21,.13,.33,.06,.22-.13,.12-.28,.26-.32,.05-.02,.2-.27-.13-.38Z"/><path class="cls-7" d="M27.96,56.47l4.7,1.42-.24,.73s-3.19,0-4.9-.39c-1.04-.24-.97-1.75,.45-1.75Z"/><path class="cls-7" d="M28.87,53.93c-.07,.56-.34,.43-.68,.38-.95-.14-.82-.19-.77-.55,.07-.49,.58-.61,.58-.61-.23,.22-.34,.66-.03,.78,.13,.05,.42,.08,.45-.03,.02-.09,.47-.08,.46,.03Z"/><path class="cls-7" d="M21.63,58.77s-.57,.3-1.07,.13c-.6-.21-1.42-.8-.75-2.17,.66-1.37,2.39-2.12,2.22-3.36-.2-1.42-2.48-1.31-2.71-.12-.29,1.51,2.3,2.73,2.38,3.04,.08,.31,.46,.13,.37-.22-.09-.35-2.75-1.41-2.51-2.7,.16-.86,2.01-1.08,2.14,.06,.11,.99-1.89,2.25-2.39,3.21-.59,1.13-.24,2.43,.89,2.83,.89,.32,1.37,.06,1.37,.06l.06-.75Z"/><path class="cls-7" d="M27.19,52.02s.01-.24-.15-.35c-.16-.11-.52-.02-.68-.16-.16-.14-.13-.39-.17-.4-.04-.01-.27,.33-.17,.55,.18,.39,.45,.26,.5,.5,.02,.09,.41,.39,.67-.15Z"/><path class="cls-7" d="M20.02,62.24s.01-.17-.11-.25c-.12-.08-.37-.01-.49-.11-.12-.1-.1-.28-.13-.29-.03,0-.19,.24-.12,.4,.13,.28,.33,.19,.36,.36,.01,.07,.3,.28,.48-.11Z"/><path class="cls-7" d="M19.89,62.42s-.07-.16-.21-.18c-.14-.02-.34,.16-.49,.12-.15-.04-.21-.21-.24-.2s-.07,.3,.07,.41c.24,.19,.38,.02,.48,.16,.04,.05,.39,.12,.39-.31Z"/><path class="cls-7" d="M19.83,62.64s-.13-.11-.27-.06-.23,.29-.38,.32c-.15,.03-.28-.09-.31-.07-.03,.02,.08,.3,.25,.33,.3,.06,.35-.15,.5-.07,.06,.03,.41-.07,.2-.45Z"/><path class="cls-7" d="M19.77,63.04s-.14-.06-.25,.01c-.1,.08-.13,.31-.25,.38-.12,.07-.27,0-.28,.02s.14,.24,.3,.23c.28-.02,.26-.22,.42-.19,.06,0,.33-.17,.06-.44Z"/><path class="cls-7" d="M19.81,63.36s-.14,0-.2,.09-.01,.3-.09,.39c-.08,.09-.22,.07-.23,.1,0,.02,.19,.16,.32,.1,.23-.1,.15-.26,.29-.29,.05-.01,.23-.24-.08-.39Z"/><path class="cls-7" d="M24.84,62.89s-.08-.15-.22-.15c-.14,0-.32,.18-.47,.15-.15-.03-.22-.19-.25-.18s-.04,.3,.1,.4c.25,.17,.37,0,.48,.12,.05,.05,.39,.08,.35-.33Z"/><path class="cls-7" d="M24.82,63.11s-.14-.1-.26-.04c-.13,.06-.21,.3-.35,.35s-.28-.07-.31-.05c-.02,.02,.1,.29,.27,.31,.3,.04,.33-.17,.49-.11,.06,.02,.39-.1,.17-.46Z"/><path class="cls-7" d="M24.89,63.32s-.17-.03-.25,.08c-.09,.11-.05,.36-.16,.47s-.28,.07-.29,.1,.22,.21,.38,.15c.29-.1,.22-.3,.38-.32,.07,0,.3-.27-.06-.48Z"/><path class="cls-7" d="M25.04,63.69s-.15,.02-.2,.14,.05,.33-.02,.44c-.07,.12-.23,.13-.23,.16,0,.03,.24,.13,.37,.04,.22-.16,.11-.32,.25-.37,.06-.02,.19-.31-.17-.4Z"/><path class="cls-7" d="M25.23,63.93s-.12,.06-.13,.17,.14,.26,.12,.38c-.02,.12-.15,.18-.14,.2,0,.02,.24,.03,.32-.08,.14-.2,0-.3,.1-.39,.04-.04,.07-.32-.27-.28Z"/><path class="cls-7" d="M26.65,52.19s-.06-.23-.25-.29c-.19-.05-.5,.14-.69,.05-.19-.09-.24-.33-.28-.33-.04,0-.16,.39,0,.58,.28,.32,.51,.12,.62,.33,.04,.08,.51,.25,.6-.34Z"/><path class="cls-7" d="M26.12,52.53s-.15-.18-.35-.15c-.19,.03-.39,.34-.6,.34-.21,0-.36-.19-.4-.17s.03,.42,.25,.52c.39,.16,.51-.11,.7,.03,.08,.06,.57,0,.39-.56Z"/><path class="cls-7" d="M25.78,53.13s-.19-.14-.37-.06c-.18,.08-.29,.43-.49,.49-.2,.06-.4-.1-.43-.07-.03,.03,.14,.4,.38,.44,.42,.06,.46-.24,.69-.16,.09,.03,.55-.14,.23-.64Z"/><path class="cls-7" d="M25.5,53.83s-.22-.1-.38,.02c-.16,.12-.19,.48-.38,.58-.19,.1-.41-.01-.44,.03-.03,.04,.22,.36,.46,.35,.43-.03,.4-.33,.64-.3,.09,.02,.51-.25,.09-.68Z"/><path class="cls-7" d="M25.57,54.46s-.23-.05-.36,.1c-.13,.15-.09,.51-.25,.65s-.4,.08-.42,.12c-.02,.04,.29,.31,.52,.24,.41-.12,.32-.41,.56-.42,.09,0,.45-.36-.05-.68Z"/><path class="cls-7" d="M25.78,55.15s-.23-.05-.36,.1c-.13,.15-.09,.51-.25,.65-.16,.14-.4,.08-.42,.12s.29,.31,.52,.24c.41-.12,.32-.41,.56-.42,.09,0,.45-.36-.05-.68Z"/><path class="cls-7" d="M28.81,53.44s-.05,.13-.08,.14c-.03,.01-.05-.14-.05-.14h.12Z"/><path class="cls-7" d="M28.56,53.87s.05-.13,.08-.14,.04,.14,.04,.14h-.12Z"/><path class="cls-7" d="M27.8,53.49s.12,.18,.27,.19c.15,.01,.43-.12,.62-.07,.19,.04,.49,.26,.64,.25,.15-.01,.24-.16,.22-.22l-.02-.06s.07,0,.09,.12c.02,.12-.07,.37-.3,.31-.23-.06-.5-.35-.63-.33-.13,.01-.41,.21-.57,.17-.15-.04-.31-.15-.31-.36Z"/><path class="cls-7" d="M21.83,65.49s.11-.02,.12-.04c.01-.02-.09-.08-.16-.07-.07,0-.04,.12,.03,.11Z"/><path class="cls-7" d="M21.97,65.92s.11-.02,.12-.04c.01-.02-.09-.08-.16-.07-.07,0-.04,.12,.03,.11Z"/><path class="cls-7" d="M21.7,66.36s.11-.02,.12-.04c.01-.02-.09-.08-.16-.07-.07,0-.04,.12,.03,.11Z"/><path class="cls-7" d="M28.3,64.99s.11-.02,.12-.04c.01-.02-.09-.08-.16-.07s-.04,.12,.03,.11Z"/><path class="cls-7" d="M28.44,65.42s.11-.02,.12-.04c.01-.02-.09-.08-.16-.07-.07,0-.04,.12,.03,.11Z"/><path class="cls-7" d="M28.17,65.86s.11-.02,.12-.04c.01-.02-.09-.08-.16-.07s-.04,.12,.03,.11Z"/><path class="cls-7" d="M20.93,65.62c.14-.03,.04-.39,.29-.44,.37-.07,.61,.31,.61,.31,0,0-.01,.02-.03,.05-.05-.04-.17-.11-.31-.12-.17,0-.27,.07-.28,.08h0s.08-.05,.24-.05c.16,0,.28,.11,.31,.14-.07,.09-.19,.21-.37,.22-.29,.01-.72,0-.72,0v-.19s.12,.03,.26,0Z"/><path class="cls-7" d="M20.67,66.18c.14-.03,.13-.25,.39-.3,.21-.04,.35,.03,.45,.12-.03-.02-.06-.03-.09-.04-.17-.05-.3,.02-.3,.02,0,0,.07-.04,.25,0,.13,.03,.22,.13,.26,.18,.05,.1,.07,.18,.07,.18,0,0-.18,.21-.47,.23-.39,.04-.62-.05-.79-.12-.31-.13-.38-.4-.38-.4,0,0,.47,.14,.61,.11Z"/><path class="cls-7" d="M27.4,65.12c.14-.03,.04-.39,.29-.44,.37-.07,.61,.31,.61,.31,0,0-.01,.02-.03,.06-.05-.04-.17-.11-.31-.12-.17,0-.27,.07-.28,.08h0s.08-.05,.24-.05c.12,0,.24,.08,.31,.14-.07,.09-.19,.21-.37,.22-.29,.01-.72,0-.72,0v-.19s.12,.03,.26,0Z"/><path class="cls-7" d="M21.86,55.85s.44,.02,.5,.42c.06,.39-.47,.56-.5,.64-.06,.18,.13,.07,.14,.14,0,.07-.01,.22-.27,.21-.17,0-.44-.18-.33-.52,.11-.34,.42-.44,.42-.64,0-.2,.04-.24,.04-.24Z"/><path class="cls-7" d="M32.54,58.1s.53-.12,.73-.05c.2,.08,.42,.4,.42,.4,0,0-.36,.26-.6,.2-.17-.05-.61-.27-.61-.27l.06-.28Z"/><path class="cls-7" d="M33.47,57.67s.1-.05,.11-.07c0-.02-.1-.05-.17-.02-.07,.03,0,.13,.06,.09Z"/><path class="cls-7" d="M33.68,58.5s.11,0,.13-.02c.01-.02-.08-.09-.15-.09-.07,0-.06,.12,.02,.11Z"/><path class="cls-7" d="M33.13,59.12s.11,.04,.13,.03-.04-.11-.1-.14c-.07-.03-.1,.08-.02,.11Z"/><path class="cls-7" d="M32.95,57.55c.2-.05,.5,.05,.5,.05,0,0-.03,.26-.18,.4-.02,0-.04-.02-.07-.02-.17-.02-.3,.07-.3,.07,0,0,.07-.02,.21-.03,.04,0,.08,0,.11,.02-.02,0-.03,.02-.05,.03-.17,.06-.58,.08-.58,.08l-.09-.17s.24-.38,.44-.43Z"/><path class="cls-7" d="M32.48,58.35s.4,.14,.55,.23c.03,.02,.05,.04,.07,.06-.02,0-.04,0-.06-.01-.15-.04-.22-.09-.22-.09,0,0,.12,.13,.31,.15h0c.08,.17,.04,.41,.04,.41,0,0-.27,0-.47-.08-.23-.1-.34-.53-.34-.53l.12-.15Z"/><path class="cls-7" d="M32.3,54.81s.41-.36,.62-.38,.56,.15,.56,.15c0,0-.2,.4-.44,.45-.17,.04-.66,.05-.66,.05l-.08-.28Z"/><path class="cls-7" d="M32.92,54s.07-.09,.06-.11c0-.02-.11,0-.16,.06-.05,.06,.05,.12,.1,.05Z"/><path class="cls-7" d="M33.5,54.64s.1-.06,.1-.08-.11-.04-.17,0c-.06,.03,0,.13,.07,.09Z"/><path class="cls-7" d="M33.31,55.44s.11-.01,.13-.03c.01-.02-.08-.08-.16-.07-.07,0-.05,.12,.03,.11Z"/><path class="cls-7" d="M32.4,54.14c.16-.14,.47-.19,.47-.19,0,0,.09,.25,.03,.43-.02,0-.05,0-.07,.02-.16,.06-.23,.2-.23,.2,0,0,.05-.06,.17-.12,.03-.02,.07-.03,.11-.04,0,.02-.02,.03-.03,.04-.12,.13-.47,.34-.47,.34l-.16-.1s.03-.45,.19-.59Z"/><path class="cls-7" d="M32.37,55.07s.41-.06,.59-.06c.03,0,.06,0,.09,.02-.02,0-.04,.01-.06,.02-.15,.03-.23,.03-.23,.03,0,0,.16,.06,.34,0h0c.15,.11,.23,.34,.23,.34,0,0-.24,.13-.45,.15-.25,.02-.55-.3-.55-.3l.04-.19Z"/><path class="cls-7" d="M29.83,55.89c-.15-.36-.38-.57-.57-.68l3.07-.68,.16,.76s-1.27,.64-2.58,1.28c.03-.18,.03-.41-.08-.67Z"/><path class="cls-7" d="M19.59,62.25c.15-.53,1.68-.76,1.76-1.5,.09-.74-.18-1.74,.5-2.18,.66-.43,2.17-.31,1.97,.99-.15,.57-.31,1.73-.31,1.74-.12,.47-.29,.9-.5,1.04-.74,.49-1.97,.56-2.18,.74s.02,2.21,.05,2.44,.35,.44,.27,.56c-.09,.12-.83,.15-1.06,0-.24-.15-.64-3.3-.49-3.83Z"/><path class="cls-7" d="M21.42,59.09c.15-.86,2.03-1.51,4.15-3.07-.23-.56-.36-1.13-.38-1.55-.07-1.22,.94-2.4,1.77-2.6,.82-.2,1.34,.03,1.49,.15,.15,.12,.06,.44,.06,.44,0,0,.57,0,.59,.18,0,.04,0,.07,0,.11h0s-.05,.07-.13,.1-.2-.05-.2-.05c0,0,.07,.12,.16,.13,.06,0,.12,0,.16-.02-.01,.18-.05,.34-.1,.44-.07,.15-.52,.1-.53,0-.05-.46-.77-.14-.86,.15-.09,.29-.1,.51-.05,.69-.16-.05-.4-.13-.45-.2-.08-.12-.1-.44-.1-.44,0,0-.02,.31,.01,.43,.03,.12,.38,.24,.57,.3,.1,.23,.29,.4,.52,.59,.16,.13,1.25,.44,1.59,1.07,.13,.24,.17,.58,.07,.91l-1.28-.22,1.23,.37c-.15,.36-.47,.69-1.03,.88-.13,.18-.28,.34-.47,.47-.54-.08-1.13-.2-1.29-.34-.27-.24-.17-.82-.17-.82,0,0-.28,.54,.07,.9,.15,.16,.69,.28,1.22,.37-.14,.08-.3,.14-.47,.18-.85,.21-2.44,.21-3.03,.34h0s-.44,.07-.61,.29c-.06,.08-.13,.33-.19,.64-.19,.27-.44,.52-.8,.58-1.18,.2-1.66-.55-1.52-1.4Z"/><path class="cls-7" d="M20.88,65.89c.15-.03,.13-.32,.4-.42,.42-.14,.71,.39,.71,.39,0,0-.11,.18-.32,.26-.05-.05-.14-.14-.26-.17-.17-.05-.3,.02-.3,.02,0,0,.07-.04,.25,0,.12,.03,.21,.11,.25,.17-.04,.01-.09,.02-.14,.03-.32,.01-.81,0-.81,0v-.22s.06-.04,.21-.07Z"/><path class="cls-7" d="M27.14,65.68c.14-.03,.13-.25,.39-.3,.21-.04,.36,.03,.46,.13-.03-.02-.06-.03-.1-.04-.17-.05-.3,.02-.3,.02,0,0,.07-.04,.25,0,.14,.03,.23,.14,.27,.19,.05,.09,.06,.17,.06,.17,0,0-.18,.21-.47,.23-.39,.04-.62-.05-.79-.12-.31-.13-.38-.4-.38-.4,0,0,.47,.14,.61,.11Z"/><path class="cls-7" d="M27.35,65.39c.15-.03,.13-.32,.4-.42,.42-.14,.71,.39,.71,.39,0,0-.12,.18-.32,.27-.05-.05-.14-.14-.26-.17-.17-.05-.3,.02-.3,.02,0,0,.07-.04,.25,0,.12,.03,.2,.11,.25,.16-.04,.01-.09,.02-.14,.03-.32,.01-.81,0-.81,0v-.22s.06-.04,.21-.07Z"/><path class="cls-7" d="M23.94,59.39c.05-.15,.28-.27,.44-.34,.12,.09,1.56,1.24,1.63,2.22,.06,.88,.17,1.88,.19,2.15,.02,.27,.85,1.35,1.05,1.47,.21,.12,.57,.32,.61,.46,0,.03-.01,.07-.06,.11-.13-.01-.22,.04-.22,.04,0,0,.05-.03,.19-.01-.18,.17-.63,.38-.84,.38-.28,0-1.67-1.52-2-1.96-.33-.44-.29-1.64-.82-2.15-.13-.12-.3-.25-.49-.37,0,0,.07-1.2,.31-1.99Z"/></g></svg>