<?xml version="1.0" encoding="UTF-8"?><svg id="Capa_1" xmlns="http://www.w3.org/2000/svg" viewBox="0 0 99.2 99.2"><defs><style>.cls-1{fill:#fff;}.cls-2{fill:#84afab;}</style></defs><polygon class="cls-2" points="20.3 59.71 29.6 97.44 69.6 97.44 78.9 59.71 78.9 55.45 20.3 55.45 20.3 59.71"/><path class="cls-2" d="M49.57,62.31c2.42-4.09,4-8.61,4.64-13.32s.58-9.65-1.69-13.87c-1.11-2.05-4.23-.23-3.12,1.83,1.92,3.55,1.79,8.07,1.2,11.96-.63,4.1-2.05,8.01-4.15,11.58-1.19,2.01,1.94,3.83,3.12,1.83h0Z"/><g><path class="cls-2" d="M51.08,40.61c-4.56,1.49-9.62-1.32-12.29-5.3-2.66-3.99-3.47-8.89-4.21-13.62l-1.17-7.43c4.96,3.25,11.18,4.5,15.54,8.51,4.91,4.53,6.42,12.35,3.54,18.38"/><path class="cls-2" d="M50.21,37.48c-2.02,.61-3.81,.2-5.81-1.08s-3.34-3.18-4.32-5.49c-1.06-2.5-1.59-5.3-2.04-7.99-.54-3.17-1.01-6.35-1.51-9.52l-4.77,3.67c5.03,3.23,11.73,4.47,15.77,8.89,.75,.82,1.37,1.78,1.97,3.02,.38,.78,.85,2.39,1.08,3.63,.13,.74,.18,2.53,.02,3.76,.07-.51-.11,.54-.11,.54-.06,.29-.13,.58-.21,.87-.19,.7-.43,1.37-.6,1.73-.74,1.59-.45,3.5,1.17,4.44,1.4,.82,3.7,.43,4.44-1.17,3.03-6.55,2.33-14.38-2.11-20.15s-12.08-7.3-18.14-11.19c-1.08-.7-2.64-.52-3.61,.25-1.1,.88-1.38,2.06-1.16,3.41,1.08,6.85,1.53,14.38,4.95,20.56,3.19,5.78,10.02,10.07,16.72,8.05,3.99-1.2,2.29-7.48-1.73-6.26h0Z"/></g><path class="cls-1" d="M40.23,28.47c4.18,0,4.19-6.5,0-6.5s-4.19,6.5,0,6.5h0Z"/><path class="cls-1" d="M38.83,27.77c-.06,.26-.12,.51-.16,.77-.08,.49-.19,1.06-.15,1.57,.04,.49,.08,1.01,.26,1.47,.3,.76,.62,1.44,1.26,1.98,.38,.33,.76,.64,1.22,.84,.33,.15,.73,.34,1.1,.44s.85,.15,1.2,.18c1.06,.11,2.13-.2,3.06-.69,.84-.44,1.64-1.24,2.11-2.07,.65-1.16,.85-2.49,.56-3.79-.11-.5-.33-1.01-.64-1.43-.19-.25-.43-.6-.68-.85-.29-.28-.63-.53-.96-.76-.87-.62-1.92-.88-2.98-.96-.13-.01-.26,0-.39,0-.39,.04-.84,.06-1.23,.2-.81,.27-1.35,.59-1.99,1.16-.95,.84-1.58,2.25-1.5,3.52-.02,.45,.08,.86,.28,1.25,.13,.4,.35,.75,.67,1.05,.29,.32,.64,.54,1.05,.67,.39,.2,.8,.3,1.25,.28,.84-.04,1.71-.31,2.3-.95s1-1.44,.95-2.3c0-.1,0-.19,0-.29l-.12,.86c.02-.11,.05-.22,.09-.33l-.33,.78c.06-.13,.12-.24,.21-.35l-.51,.66c.09-.11,.18-.2,.29-.29l-.66,.51c.13-.1,.26-.18,.41-.24l-.78,.33c.14-.05,.27-.09,.42-.11l-.86,.12c.2-.03,.39-.02,.58,0l-.86-.12c.22,.03,.43,.09,.63,.18l-.78-.33c.22,.1,.43,.22,.63,.37l-.66-.51c.15,.12,.3,.25,.42,.41l-.51-.66c.09,.12,.17,.25,.23,.39l-.33-.78c.04,.11,.07,.22,.09,.33l-.12-.86c.02,.16,.02,.32,0,.48l.12-.86c-.03,.18-.07,.35-.14,.52l.33-.78c-.07,.17-.16,.32-.27,.47l.51-.66c-.12,.16-.26,.3-.42,.43l.66-.51c-.16,.12-.33,.22-.52,.31l.78-.33c-.19,.08-.38,.13-.58,.16l.86-.12c-.23,.03-.45,.03-.68,0l.86,.12c-.23-.03-.45-.09-.66-.18l.78,.33c-.18-.08-.35-.17-.51-.29l.66,.51c-.1-.08-.19-.17-.28-.27l.51,.66c-.08-.1-.14-.21-.2-.32l.33,.78c-.06-.15-.11-.31-.13-.48l.12,.86c-.03-.26-.02-.51,.01-.77l-.12,.86c.04-.28,.1-.56,.17-.84,.21-.83,.11-1.76-.33-2.5-.2-.38-.48-.68-.84-.91-.31-.29-.68-.48-1.1-.58-.83-.19-1.76-.15-2.5,.33s-1.28,1.11-1.49,1.94h0Z"/><path class="cls-1" d="M45.51,26.24l1.93-1.9c.23-.23,.25-.66,0-.88s-.64-.25-.88,0l-1.93,1.9c-.23,.23-.25,.66,0,.88s.64,.25,.88,0h0Z"/><path class="cls-1" d="M47.76,27.75l2.26-1.14c.29-.15,.4-.58,.22-.86-.19-.3-.54-.38-.86-.22l-2.26,1.14c-.29,.15-.4,.58-.22,.86,.19,.3,.54,.38,.86,.22h0Z"/><path class="cls-1" d="M48.47,30.56h3.31c.33,0,.64-.29,.62-.62s-.27-.62-.62-.62h-3.31c-.33,0-.64,.29-.62,.62s.27,.62,.62,.62h0Z"/><path class="cls-1" d="M39.45,29.05c-1.17,.34-2.31,.84-3.34,1.49-.28,.17-.41,.57-.22,.86s.56,.41,.86,.22c.49-.31,1-.58,1.52-.82,.07-.03,.14-.06,.21-.09-.12,.05,.05-.02,.06-.03,.14-.06,.29-.11,.43-.17,.27-.1,.54-.19,.82-.27,.31-.09,.54-.44,.44-.77s-.43-.53-.77-.44h0Z"/><path class="cls-1" d="M40.21,31.61l-2.63,2.16c-.25,.21-.23,.67,0,.88,.27,.25,.61,.22,.88,0l2.63-2.16c.25-.21,.23-.67,0-.88-.27-.25-.61-.22-.88,0h0Z"/><path class="cls-1" d="M42.34,33.62c-.03,.26-.06,.53-.09,.79-.03,.2,.02-.12-.01,.08,0,.06-.02,.12-.03,.18-.02,.13-.04,.26-.06,.4-.08,.52-.17,1.03-.27,1.54-.06,.32,.09,.69,.44,.77,.31,.07,.7-.09,.77-.44,.22-1.1,.39-2.21,.51-3.32,.04-.33-.31-.64-.62-.62-.37,.02-.59,.28-.62,.62h0Z"/></svg>