<?xml version="1.0" encoding="UTF-8"?><svg id="Capa_1" xmlns="http://www.w3.org/2000/svg" viewBox="0 0 99.2 99.2"><defs><style>.cls-1{fill:#84afab;}</style></defs><polygon class="cls-1" points="20.3 59.71 29.6 97.44 69.6 97.44 78.9 59.71 78.9 55.45 20.3 55.45 20.3 59.71"/><path class="cls-1" d="M49.57,62.31c2.42-4.09,4-8.61,4.64-13.32s.58-9.65-1.69-13.87c-1.11-2.05-4.23-.23-3.12,1.83,1.92,3.55,1.79,8.07,1.2,11.96-.63,4.1-2.05,8.01-4.15,11.58-1.19,2.01,1.94,3.83,3.12,1.83h0Z"/><path class="cls-1" d="M52.56,36c-.5-3.95-2.86-6.88-4.77-10.23-2.17-3.8-2.14-7.97-1.22-12.15,.5-2.27-2.99-3.24-3.49-.96-.99,4.5-1.17,9.14,.79,13.41,1.52,3.3,4.61,6.22,5.07,9.93,.12,.97,.74,1.81,1.81,1.81,.88,0,1.93-.83,1.81-1.81h0Z"/><path class="cls-1" d="M47.43,24.15c.74-.74,2.19-1.01,3.27-1.16,1.33-.18,2.69-.2,4.02-.37,2.81-.36,5.41-1.28,7.15-3.63,.58-.79,.13-2.02-.65-2.48-.92-.54-1.89-.14-2.48,.65-.47,.63-1.41,1.14-2.24,1.41-1.23,.39-2.16,.49-3.37,.58-2.77,.22-6.17,.32-8.26,2.43-1.64,1.66,.92,4.22,2.56,2.56h0Z"/><path class="cls-1" d="M57.56,19.12c-.06-1.63-.04-3.25,.07-4.88,.03-.44-.22-.97-.53-1.28s-.83-.55-1.28-.53c-1.04,.05-1.74,.8-1.81,1.81-.11,1.62-.14,3.25-.07,4.88,.02,.48,.19,.94,.53,1.28,.31,.31,.83,.55,1.28,.53,.95-.04,1.85-.8,1.81-1.81h0Z"/><path class="cls-1" d="M49.43,33.38c-2.49-.25-4.99,.23-7.48,0-2.35-.22-3.96-1.61-5.6-3.19s-4.24,.94-2.56,2.56c2.08,2,4.25,3.72,7.19,4.13s5.63-.17,8.45,.12c.97,.1,1.81-.9,1.81-1.81,0-1.06-.83-1.71-1.81-1.81h0Z"/><path class="cls-1" d="M36.01,33.17c-.41,.2-.83,.4-1.25,.58l.43-.18c-.58,.24-1.17,.44-1.8,.53l.48-.06c-.41,.05-.81,.06-1.21,.02l.48,.06c-.31-.04-.6-.12-.89-.23l.43,.18c-.23-.1-.44-.21-.64-.36-.36-.26-.98-.3-1.39-.18s-.87,.44-1.08,.83c-.22,.42-.33,.93-.18,1.39s.43,.79,.83,1.08c1.03,.74,2.43,.98,3.67,.82,.69-.09,1.33-.23,1.98-.48s1.33-.57,1.98-.88c.85-.41,1.15-1.7,.65-2.48-.56-.88-1.56-1.09-2.48-.65h0Z"/></svg>