<?xml version="1.0" encoding="UTF-8"?><svg id="Capa_1" xmlns="http://www.w3.org/2000/svg" viewBox="0 0 99.2 99.2"><defs><style>.cls-1{fill:#fff;}.cls-2{fill:#84afab;}</style></defs><polygon class="cls-2" points="20.3 59.71 29.6 97.44 69.6 97.44 78.9 59.71 78.9 55.45 20.3 55.45 20.3 59.71"/><path class="cls-2" d="M49.57,62.31c3.92-6.64,5.84-14.74,4.64-22.42-.45-2.84-1.57-5.99-4.19-7.52-1.67-.97-3.78-1.1-5.67-1.02-2.05,.08-4.09,.54-5.76,1.77-1.86,1.36-.06,4.5,1.83,3.12,1.3-.95,2.75-1.26,4.34-1.28,1.3-.02,2.82-.03,3.86,.84,1.65,1.37,2.05,4.09,2.22,6.09,.55,6.48-1.1,13.02-4.39,18.59-1.19,2.01,1.94,3.83,3.12,1.83h0Z"/><g><path class="cls-2" d="M39.49,34.99c-2.91-2.32-7.35-2.47-10.42-.37-2.73,1.87-4.18,5.09-6.56,7.38l4.18,.29c2.66,.19,5.42,.36,7.92-.59s4.65-3.35,4.41-6.01"/><path class="cls-2" d="M40.41,33.43c-3.16-2.44-7.63-2.69-11.18-.99s-5.26,5.59-8,8.28c-1.18,1.16-.23,2.98,1.28,3.09,3.98,.28,8.42,1.07,12.29-.26,3.31-1.14,6.26-4.15,6.03-7.86-.06-.98-.79-1.81-1.81-1.81-.93,0-1.87,.83-1.81,1.81,.16,2.57-2.25,4.2-4.55,4.69-1.55,.33-3.17,.27-4.74,.18-1.81-.1-3.61-.25-5.41-.37l1.28,3.09c2.31-2.27,3.77-5.66,6.61-7.36,2.58-1.54,5.84-1.16,8.18,.64,.78,.6,2.03,.12,2.48-.65,.55-.93,.13-1.88-.65-2.48h0Z"/></g><path class="cls-1" d="M73.8,72.2c-6.6-.12-11.67-3.39-14.37-9.41-1.06,4.05-5.14,6.97-9.33,7.05s-8.21-2.46-10.31-6.08c-1.74,1.84-3.5,3.7-5.63,5.07s-6.26,2.83-8.76,2.42l5.58,24.4h37.34l5.48-23.46Z"/></svg>