<?xml version="1.0" encoding="UTF-8"?><svg id="Capa_1" xmlns="http://www.w3.org/2000/svg" viewBox="0 0 99.2 99.2"><defs><style>.cls-1{fill:#84afab;}.cls-2{fill:none;stroke:#bedcda;stroke-miterlimit:10;stroke-width:.5px;}</style></defs><polygon class="cls-1" points="20.3 59.71 29.6 97.44 69.6 97.44 78.9 59.71 78.9 55.45 20.3 55.45 20.3 59.71"/><path class="cls-1" d="M49.57,62.31c2.42-4.09,4-8.61,4.64-13.32s.58-9.65-1.69-13.87c-1.11-2.05-4.23-.23-3.12,1.83,1.92,3.55,1.79,8.07,1.2,11.96-.63,4.1-2.05,8.01-4.15,11.58-1.19,2.01,1.94,3.83,3.12,1.83h0Z"/><g><path class="cls-1" d="M50.94,35.73c-2.54,.83-5.36-.73-6.84-2.95s-1.93-4.95-2.35-7.59l-.65-4.14c2.76,1.81,6.23,2.51,8.66,4.74,2.74,2.52,3.58,6.88,1.97,10.24"/><path class="cls-1" d="M50.46,33.98c-1.12,.34-2.13,.1-3.21-.58-1.13-.71-1.9-1.83-2.43-3.06-.58-1.35-.86-2.83-1.11-4.27-.32-1.83-.59-3.67-.87-5.5l-2.66,2.04c2.78,1.78,6.45,2.44,8.75,4.91,1.83,1.98,2.33,5.22,1.24,7.59-.41,.89-.25,1.95,.65,2.48,.78,.46,2.06,.24,2.48-.65,1.66-3.6,1.32-7.93-1.1-11.12-2.58-3.39-6.76-4.14-10.18-6.33-.6-.39-1.47-.29-2.01,.14-.61,.49-.77,1.15-.65,1.9,.6,3.83,.85,8.07,2.79,11.52,1.79,3.19,5.57,5.53,9.28,4.42,2.23-.67,1.28-4.16-.96-3.49h0Z"/></g><rect class="cls-1" x="73.91" y=".36" width="39.21" height="8.01" transform="translate(10.35 47.34) rotate(-30)"/><polygon class="cls-1" points="80.97 19.46 72.89 27.69 63.17 10.84 74.33 7.95 80.97 19.46"/><line class="cls-2" x1="50.37" y1="18.99" x2="53.71" y2="17.82"/><line class="cls-2" x1="57.37" y1="15.99" x2="60.71" y2="14.82"/><line class="cls-2" x1="60.76" y1="33.61" x2="63.44" y2="31.3"/><line class="cls-2" x1="65.76" y1="29.6" x2="68.44" y2="27.3"/><line class="cls-2" x1="56.5" y1="24.74" x2="59.65" y2="23.13"/><line class="cls-2" x1="63.03" y1="20.81" x2="66.17" y2="19.2"/></svg>